<svg xmlns="http://www.w3.org/2000/svg" xmlns:xlink="http://www.w3.org/1999/xlink" width="1080" zoomAndPan="magnify" viewBox="0 0 810 809.999993" height="1080" preserveAspectRatio="xMidYMid meet" version="1.0"><defs><clipPath id="3a6646e7ea"><path d="M 55.453125 55.453125 L 744.703125 55.453125 L 744.703125 744.703125 L 55.453125 744.703125 Z M 55.453125 55.453125 " clip-rule="nonzero"/></clipPath></defs><g clip-path="url(#3a6646e7ea)"><path fill="#004aad" d="M 744.578125 639.792969 C 744.578125 697.625 697.691406 744.507812 639.859375 744.507812 L 160.191406 744.507812 C 102.359375 744.507812 55.480469 697.625 55.480469 639.792969 L 55.480469 160.125 C 55.480469 102.292969 102.359375 55.410156 160.191406 55.410156 L 639.859375 55.410156 C 697.695312 55.410156 744.578125 102.292969 744.578125 160.125 Z M 744.578125 639.792969 " fill-opacity="1" fill-rule="nonzero"/></g><path fill="#ffffff" d="M 327.960938 301.261719 C 327.960938 302.949219 327.878906 304.628906 327.714844 306.308594 C 327.550781 307.984375 327.300781 309.652344 326.972656 311.304688 C 326.644531 312.957031 326.234375 314.59375 325.746094 316.207031 C 325.257812 317.820312 324.6875 319.402344 324.042969 320.960938 C 323.398438 322.519531 322.679688 324.042969 321.882812 325.527344 C 321.089844 327.015625 320.222656 328.460938 319.289062 329.863281 C 318.351562 331.261719 317.347656 332.617188 316.277344 333.917969 C 315.207031 335.222656 314.078125 336.46875 312.886719 337.664062 C 311.691406 338.855469 310.445312 339.984375 309.140625 341.054688 C 307.839844 342.125 306.488281 343.128906 305.085938 344.0625 C 303.683594 345 302.238281 345.867188 300.75 346.660156 C 299.265625 347.457031 297.742188 348.175781 296.183594 348.820312 C 294.628906 349.464844 293.042969 350.035156 291.429688 350.523438 C 289.816406 351.011719 288.179688 351.421875 286.527344 351.75 C 284.875 352.078125 283.207031 352.328125 281.53125 352.492188 C 279.851562 352.65625 278.171875 352.738281 276.484375 352.738281 C 274.800781 352.738281 273.117188 352.65625 271.4375 352.492188 C 269.761719 352.328125 268.097656 352.078125 266.441406 351.75 C 264.789062 351.421875 263.15625 351.011719 261.542969 350.523438 C 259.929688 350.035156 258.34375 349.464844 256.785156 348.820312 C 255.226562 348.175781 253.707031 347.457031 252.21875 346.660156 C 250.730469 345.867188 249.289062 345 247.886719 344.0625 C 246.484375 343.128906 245.132812 342.125 243.828125 341.054688 C 242.523438 339.984375 241.277344 338.855469 240.085938 337.664062 C 238.894531 336.46875 237.761719 335.222656 236.691406 333.917969 C 235.621094 332.617188 234.621094 331.261719 233.683594 329.863281 C 232.746094 328.460938 231.878906 327.015625 231.085938 325.527344 C 230.292969 324.042969 229.570312 322.519531 228.925781 320.960938 C 228.28125 319.402344 227.714844 317.820312 227.222656 316.207031 C 226.734375 314.59375 226.324219 312.957031 225.996094 311.304688 C 225.667969 309.652344 225.421875 307.984375 225.253906 306.308594 C 225.089844 304.628906 225.007812 302.949219 225.007812 301.261719 C 225.007812 299.578125 225.089844 297.894531 225.253906 296.214844 C 225.421875 294.539062 225.667969 292.871094 225.996094 291.21875 C 226.324219 289.566406 226.734375 287.933594 227.222656 286.320312 C 227.714844 284.707031 228.28125 283.121094 228.925781 281.5625 C 229.570312 280.003906 230.292969 278.484375 231.085938 276.996094 C 231.878906 275.507812 232.746094 274.066406 233.683594 272.664062 C 234.621094 271.261719 235.621094 269.910156 236.691406 268.605469 C 237.761719 267.300781 238.894531 266.054688 240.085938 264.863281 C 241.277344 263.667969 242.523438 262.539062 243.828125 261.46875 C 245.132812 260.398438 246.484375 259.398438 247.886719 258.460938 C 249.289062 257.523438 250.730469 256.65625 252.21875 255.863281 C 253.707031 255.066406 255.226562 254.347656 256.785156 253.703125 C 258.34375 253.058594 259.929688 252.492188 261.542969 252 C 263.15625 251.511719 264.789062 251.101562 266.441406 250.773438 C 268.097656 250.445312 269.761719 250.199219 271.441406 250.03125 C 273.117188 249.867188 274.800781 249.785156 276.484375 249.785156 C 278.171875 249.785156 279.851562 249.867188 281.53125 250.03125 C 283.207031 250.199219 284.875 250.445312 286.527344 250.773438 C 288.179688 251.101562 289.816406 251.511719 291.429688 252 C 293.042969 252.492188 294.628906 253.058594 296.183594 253.703125 C 297.742188 254.347656 299.265625 255.066406 300.75 255.863281 C 302.238281 256.65625 303.683594 257.523438 305.085938 258.460938 C 306.488281 259.398438 307.839844 260.398438 309.140625 261.46875 C 310.445312 262.539062 311.691406 263.667969 312.886719 264.863281 C 314.078125 266.054688 315.207031 267.300781 316.277344 268.605469 C 317.347656 269.910156 318.351562 271.261719 319.289062 272.664062 C 320.222656 274.066406 321.089844 275.507812 321.882812 276.996094 C 322.679688 278.484375 323.398438 280.003906 324.042969 281.5625 C 324.6875 283.121094 325.257812 284.707031 325.746094 286.320312 C 326.234375 287.933594 326.644531 289.566406 326.972656 291.21875 C 327.300781 292.871094 327.550781 294.539062 327.714844 296.214844 C 327.878906 297.894531 327.960938 299.578125 327.960938 301.261719 Z M 327.960938 301.261719 " fill-opacity="1" fill-rule="nonzero"/><path fill="#ffffff" d="M 232.109375 390.691406 L 320.542969 390.691406 L 320.542969 675.191406 L 232.109375 675.191406 Z M 232.109375 390.691406 " fill-opacity="1" fill-rule="nonzero"/><path fill="#ffffff" d="M 376.164062 390.691406 L 460.339844 390.691406 L 460.339844 675.191406 L 376.164062 675.191406 Z M 376.164062 390.691406 " fill-opacity="1" fill-rule="nonzero"/><path fill="#ffffff" d="M 379.804688 542.167969 L 463.976562 542.167969 L 463.976562 675.191406 L 379.804688 675.191406 Z M 379.804688 542.167969 " fill-opacity="1" fill-rule="nonzero"/><path fill="#ffffff" d="M 463.976562 542.167969 C 463.976562 542.167969 462.660156 505.265625 472.390625 486.082031 C 472.390625 486.082031 482.125 462.453125 512.714844 462.308594 C 512.714844 462.308594 548.589844 456.046875 558.878906 491.644531 C 558.878906 491.644531 562.773438 511.386719 562.773438 519.734375 C 562.773438 528.078125 563.054688 675.191406 563.054688 675.191406 L 651.210938 675.191406 L 651.210938 512.226562 C 651.210938 512.226562 657.609375 420.171875 602.355469 394.953125 C 602.355469 394.953125 511.507812 354.167969 462.199219 429.070312 C 462.199219 429.070312 451.441406 436.484375 449.957031 415.71875 C 448.472656 394.953125 435.867188 447.609375 435.496094 448.722656 C 435.125 449.835938 449.957031 553.660156 449.957031 553.660156 Z M 463.976562 542.167969 " fill-opacity="1" fill-rule="nonzero"/></svg>